<?xml version="1.0" encoding="utf-8"?>
<!-- Generator: Adobe Illustrator 16.0.0, SVG Export Plug-In . SVG Version: 6.00 Build 0)  -->
<!DOCTYPE svg PUBLIC "-//W3C//DTD SVG 1.1//EN" "http://www.w3.org/Graphics/SVG/1.1/DTD/svg11.dtd">
<svg version="1.1" id="Layer_1" xmlns="http://www.w3.org/2000/svg" xmlns:xlink="http://www.w3.org/1999/xlink" x="0px" y="0px"
	 width="261.602px" height="83.132px" viewBox="0 0 261.602 83.132" enable-background="new 0 0 261.602 83.132"
	 xml:space="preserve">
<path fill="#62C7CE" d="M47.807,14.013c-5.964,3.106-11.027,1.842-16,0.161c-3.276-1.106-6.384-2.688-9.64-3.863
	c-3.292-1.187-6.803-2.345-9.905,0.211c-2.946,2.427-2.272,5.961-1.636,9.026c1.419,6.837,3.522,13.539,4.876,20.385
	c1.926,9.732,3.414,19.547,5.121,29.322c0.313,1.785-0.236,4.416,2.331,4.65c2.393,0.219,2.757-2.421,3.532-4.055
	c2.659-5.605,8.577-19.709,14.132-19.044c-6.308,7.539-6.133,12.224-8.453,21.075c-0.373,1.42-1.199,2.768-2.007,4.027
	c-2.017,3.143-4.388,6.364-8.597,5.84c-4.143-0.518-6.403-3.938-6.981-7.638c-3.03-19.417-8.249-38.316-13.08-57.33
	C0.377,12.365,2.004,6.85,6.41,3.544C11.081,0.04,16.156,0.56,21.16,2.98C29.495,7.006,37.026,12.811,47.807,14.013z"/>
<path fill="#535D66" d="M60.948,2.427c8.866-1.218,24.974,15.125,13.722,26.21c-2.679-0.167-1.197-6.339-0.889-7.293
	c1.717-5.298-6.514-15.752-16.227-13.475c-5.327,1.249-10.768,2.119-16.147,3.218C41.309,10.536,53.875,3.399,60.948,2.427z"/>
<g enable-background="new    ">
	<path fill="#535D66" d="M65.079,49.391c0,5.685-3.957,8.527-11.869,8.527c-2.889,0-5.455-0.331-7.697-0.991l0.807-3.618
		c2.581,0.892,5.031,1.337,7.352,1.337c5.223,0,7.835-1.476,7.835-4.425c0-1.49-0.676-2.766-2.028-3.826
		c-0.907-0.706-2.689-1.651-5.347-2.834c-2.796-1.245-4.755-2.39-5.877-3.435c-1.552-1.443-2.328-3.257-2.328-5.438
		c0-2.273,0.791-4.125,2.374-5.554c1.767-1.599,4.263-2.397,7.49-2.397c3.656,0,6.161,0.238,7.513,0.715l-0.553,3.664
		c-2.335-0.737-4.817-1.106-7.444-1.106c-3.949,0-5.923,1.322-5.923,3.964c0,1.275,0.568,2.344,1.706,3.204
		c0.737,0.538,2.366,1.352,4.886,2.442c2.873,1.244,4.947,2.428,6.222,3.549C64.118,44.859,65.079,46.933,65.079,49.391z"/>
	<path fill="#535D66" d="M87.71,57.158l-3.618,0.139c-0.185-0.753-0.277-1.468-0.277-2.144h-0.23
		c-1.89,1.721-4.463,2.581-7.72,2.581c-1.767,0-3.288-0.519-4.563-1.556c-1.275-1.037-1.913-2.516-1.913-4.437
		c0-2.365,0.999-4.267,2.996-5.704c1.997-1.436,5.708-2.192,11.131-2.27c0.046-0.369,0.069-0.791,0.069-1.268
		c0-1.89-0.503-3.149-1.509-3.779c-1.006-0.63-2.531-0.945-4.575-0.945c-2.412,0-4.786,0.3-7.121,0.899l0.392-3.181
		c2.305-0.66,4.955-0.991,7.951-0.991c2.734,0,4.847,0.564,6.337,1.694c1.49,1.129,2.235,3.054,2.235,5.772
		c0,0.723-0.034,2.032-0.104,3.93s-0.104,3.161-0.104,3.791C87.088,52.488,87.295,54.976,87.71,57.158z M83.631,52.687
		c-0.077-2.335-0.115-4.433-0.115-6.292c-2.889,0-5.085,0.216-6.591,0.646c-2.52,0.769-3.779,2.235-3.779,4.401
		c0,2.09,1.475,3.135,4.425,3.135C80.105,54.577,82.125,53.947,83.631,52.687z"/>
	<path fill="#535D66" d="M113.083,57.158h-4.194c0.338-4.041,0.507-8.45,0.507-13.229c0-2.365-0.48-3.982-1.44-4.851
		s-2.332-1.303-4.113-1.303c-2.182,0-4.195,0.792-6.038,2.374c0,5.239,0.03,10.908,0.092,17.008h-4.194
		c0.261-5.224,0.392-9.003,0.392-11.339c0-3.595-0.338-7.082-1.014-10.463l4.056-0.576l0.438,2.812h0.184
		c2.274-2.059,4.709-3.088,7.306-3.088c2.55,0,4.524,0.564,5.923,1.694c1.398,1.129,2.097,3.138,2.097,6.026
		c0,0.292-0.016,0.868-0.046,1.729c-0.031,0.86-0.046,1.437-0.046,1.729C112.991,48.247,113.022,52.073,113.083,57.158z"/>
	<path fill="#535D66" d="M123.293,57.158h-4.171c0.215-3.072,0.323-6.583,0.323-10.532c0-4.439-0.269-8.166-0.807-11.177
		l4.609-0.622c-0.185,3.211-0.277,7.144-0.277,11.799C122.97,50.313,123.077,53.824,123.293,57.158z M124.26,28.35
		c0,0.784-0.253,1.464-0.76,2.04c-0.507,0.576-1.222,0.864-2.144,0.864c-0.783,0-1.394-0.25-1.832-0.749s-0.657-1.103-0.657-1.81
		c0-0.768,0.261-1.437,0.784-2.005c0.522-0.568,1.244-0.853,2.166-0.853c0.753,0,1.348,0.25,1.786,0.749S124.26,27.674,124.26,28.35
		z"/>
	<path fill="#535D66" d="M149.265,57.134l-3.434,0.115c-0.123-0.66-0.184-1.359-0.184-2.097h-0.254
		c-1.613,1.751-4.01,2.627-7.19,2.627c-2.919,0-5.243-1.06-6.972-3.18c-1.728-2.121-2.592-4.679-2.592-7.675
		c0-3.396,0.96-6.322,2.88-8.78c1.921-2.458,4.624-3.688,8.112-3.688c2.489,0,4.271,0.507,5.347,1.521h0.185
		c0-3.81-0.107-7.551-0.322-11.223l4.379-0.161c-0.293,3.902-0.438,9.011-0.438,15.325C148.782,46.341,148.943,52.08,149.265,57.134
		z M145.555,52.594c0-4.777-0.131-9.379-0.392-13.804c-1.244-1.029-2.797-1.545-4.655-1.545c-2.597,0-4.54,0.864-5.831,2.593
		s-1.936,3.899-1.936,6.511c0,2.336,0.611,4.302,1.832,5.899c1.222,1.599,2.916,2.397,5.082,2.397
		C142.375,54.646,144.342,53.962,145.555,52.594z"/>
	<path fill="#535D66" d="M174.271,43.629c0,0.646-0.031,1.537-0.093,2.674l-15.833,0.276c0.154,2.243,1.021,4.122,2.604,5.635
		c1.583,1.514,3.68,2.271,6.292,2.271c2.335,0,4.523-0.284,6.568-0.854l-0.393,3.25c-1.506,0.599-3.68,0.898-6.521,0.898
		c-3.995,0-7.041-1.091-9.139-3.272c-2.097-2.182-3.145-4.84-3.145-7.974c0-3.35,0.955-6.234,2.869-8.654
		c1.912-2.42,4.482-3.629,7.709-3.629c2.965,0,5.219,0.875,6.764,2.627C173.498,38.628,174.271,40.879,174.271,43.629z
		 M170.422,43.676c0-4.317-1.805-6.477-5.416-6.477c-3.688,0-5.861,2.243-6.521,6.729L170.422,43.676z"/>
	<path fill="#535D66" d="M199.114,57.158h-4.194c0.338-4.041,0.507-8.45,0.507-13.229c0-2.365-0.48-3.982-1.44-4.851
		s-2.332-1.303-4.113-1.303c-2.182,0-4.195,0.792-6.038,2.374c0,5.239,0.03,10.908,0.092,17.008h-4.194
		c0.262-5.224,0.393-9.003,0.393-11.339c0-3.595-0.339-7.082-1.015-10.463l4.056-0.576l0.438,2.812h0.185
		c2.273-2.059,4.709-3.088,7.305-3.088c2.551,0,4.525,0.564,5.924,1.694c1.397,1.129,2.097,3.138,2.097,6.026
		c0,0.292-0.016,0.868-0.046,1.729c-0.031,0.86-0.047,1.437-0.047,1.729C199.021,48.247,199.052,52.073,199.114,57.158z"/>
	<path fill="#535D66" d="M217.781,53.977l-0.276,2.996c-1.214,0.445-2.358,0.669-3.434,0.669c-2.766,0-4.655-0.703-5.669-2.109
		c-1.015-1.405-1.521-3.921-1.521-7.547c0-2.352,0.016-5.416,0.046-9.195c-0.86,0-2.128,0.046-3.802,0.138l0.138-3.342
		c1.46,0.093,2.766,0.139,3.918,0.139c0-0.922,0.077-3.111,0.23-6.568l3.618-0.368c-0.262,3.226-0.393,5.538-0.393,6.937
		c1.506,0,3.719-0.077,6.638-0.23l-0.161,3.434c-2.766-0.092-4.986-0.138-6.66-0.138c-0.031,2.319-0.047,4.932-0.047,7.835
		c0,3.165,0.335,5.259,1.003,6.28c0.669,1.021,1.909,1.532,3.722,1.532C215.73,54.438,216.613,54.285,217.781,53.977z"/>
	<path fill="#535D66" d="M239.398,57.158l-3.618,0.139c-0.185-0.753-0.276-1.468-0.276-2.144h-0.23
		c-1.891,1.721-4.463,2.581-7.721,2.581c-1.768,0-3.288-0.519-4.563-1.556c-1.275-1.037-1.914-2.516-1.914-4.437
		c0-2.365,0.999-4.267,2.996-5.704c1.998-1.436,5.708-2.192,11.132-2.27c0.046-0.369,0.069-0.791,0.069-1.268
		c0-1.89-0.504-3.149-1.51-3.779s-2.531-0.945-4.574-0.945c-2.412,0-4.787,0.3-7.121,0.899l0.391-3.181
		c2.305-0.66,4.955-0.991,7.951-0.991c2.734,0,4.848,0.564,6.338,1.694c1.49,1.129,2.235,3.054,2.235,5.772
		c0,0.723-0.034,2.032-0.104,3.93s-0.104,3.161-0.104,3.791C238.776,52.488,238.983,54.976,239.398,57.158z M235.319,52.687
		c-0.077-2.335-0.115-4.433-0.115-6.292c-2.889,0-5.085,0.216-6.591,0.646c-2.521,0.769-3.779,2.235-3.779,4.401
		c0,2.09,1.475,3.135,4.424,3.135C231.793,54.577,233.813,53.947,235.319,52.687z"/>
	<path fill="#535D66" d="M259.886,50.913c0,4.486-2.866,6.729-8.597,6.729c-2.535,0-4.901-0.254-7.099-0.761l0.715-3.388
		c1.997,0.769,4.164,1.152,6.499,1.152c3.349,0,5.024-0.953,5.024-2.858c0-0.922-0.373-1.655-1.118-2.2
		c-0.745-0.546-1.979-1.156-3.698-1.832c-2.183-0.86-3.766-1.69-4.748-2.489c-1.444-1.183-2.166-2.612-2.166-4.287
		c0-1.751,0.66-3.253,1.981-4.505s3.334-1.878,6.038-1.878c2.643,0,4.763,0.223,6.361,0.668l-0.715,3.318
		c-1.659-0.66-3.58-0.991-5.762-0.991c-2.949,0-4.425,0.854-4.425,2.559c0,0.86,0.331,1.556,0.991,2.086
		c0.66,0.529,1.951,1.171,3.871,1.924c2.074,0.814,3.611,1.613,4.609,2.396C259.14,47.77,259.886,49.222,259.886,50.913z"/>
</g>
<g>
	<g enable-background="new    ">
		<path fill="#62C7CE" d="M49.942,63.259c0.767,0,1.496,0.117,2.185,0.352c0.689,0.234,1.297,0.621,1.823,1.16
			c0.526,0.54,0.9,1.145,1.124,1.814c0.223,0.671,0.334,1.398,0.334,2.184c0,0.839-0.125,1.646-0.374,2.42
			c-0.249,0.773-0.632,1.43-1.15,1.969c-0.519,0.54-1.156,0.945-1.913,1.215s-1.553,0.404-2.387,0.404
			c-0.793,0-1.554-0.123-2.282-0.367c-0.728-0.246-1.349-0.623-1.862-1.133s-0.884-1.109-1.112-1.799s-0.342-1.42-0.342-2.194
			c0-0.851,0.137-1.666,0.412-2.448c0.274-0.781,0.68-1.443,1.217-1.982s1.185-0.939,1.944-1.201S49.112,63.259,49.942,63.259z
			 M49.856,64.355c-0.622,0-1.21,0.104-1.765,0.314c-0.555,0.209-1.038,0.545-1.45,1.008s-0.718,1.008-0.917,1.634
			c-0.2,0.626-0.299,1.28-0.299,1.96c0,0.632,0.098,1.238,0.295,1.817c0.197,0.58,0.487,1.063,0.871,1.45
			c0.384,0.387,0.845,0.674,1.384,0.861s1.102,0.281,1.688,0.281c0.601,0,1.175-0.1,1.722-0.302c0.547-0.201,1.019-0.521,1.415-0.96
			c0.396-0.438,0.691-0.967,0.883-1.588c0.191-0.621,0.288-1.271,0.288-1.952c0-0.643-0.087-1.257-0.261-1.842
			s-0.451-1.085-0.832-1.499c-0.381-0.414-0.833-0.715-1.356-0.902C50.996,64.449,50.442,64.355,49.856,64.355z"/>
		<path fill="#62C7CE" d="M64.288,74.613c-0.306-0.01-0.519-0.016-0.638-0.016c-0.13,0-0.355,0-0.677,0l0.093-1.766
			c-0.166,0.305-0.309,0.541-0.428,0.707s-0.26,0.322-0.424,0.471c-0.163,0.146-0.352,0.279-0.567,0.396
			c-0.215,0.117-0.455,0.207-0.719,0.273c-0.264,0.064-0.544,0.098-0.84,0.098c-0.502,0-0.973-0.096-1.411-0.286
			s-0.81-0.463-1.116-0.817c-0.306-0.354-0.526-0.768-0.661-1.238s-0.202-0.963-0.202-1.476c0-0.687,0.127-1.362,0.381-2.027
			s0.613-1.214,1.077-1.647s0.989-0.734,1.575-0.902c0.585-0.17,1.208-0.254,1.866-0.254c0.456,0,0.998,0.055,1.625,0.164
			c0.025-0.595,0.039-1.088,0.039-1.48c0-0.566-0.002-1.024-0.008-1.373l0.708,0.008c0.176,0,0.413-0.002,0.708-0.008l-0.225,4.617
			l-0.155,5.289V74.613z M63.167,67.322c-0.311-0.098-0.576-0.16-0.797-0.188c-0.22-0.027-0.434-0.041-0.641-0.041
			c-0.498,0-0.973,0.074-1.427,0.225s-0.853,0.396-1.197,0.74c-0.345,0.343-0.61,0.779-0.797,1.307
			c-0.187,0.529-0.28,1.047-0.28,1.554s0.088,0.979,0.264,1.419c0.176,0.438,0.45,0.781,0.82,1.029s0.802,0.372,1.294,0.372
			c0.295,0,0.565-0.042,0.809-0.126c0.244-0.085,0.465-0.209,0.665-0.373c0.2-0.163,0.388-0.384,0.564-0.662
			c0.176-0.277,0.316-0.6,0.419-0.965c0.088-0.32,0.153-0.754,0.194-1.299c0.021-0.268,0.044-0.782,0.07-1.545L63.167,67.322z"/>
		<path fill="#62C7CE" d="M70.298,66.128c0.544,0,1.063,0.082,1.555,0.245c0.493,0.163,0.919,0.423,1.279,0.776
			c0.36,0.354,0.634,0.801,0.82,1.341s0.28,1.108,0.28,1.708c0,0.648-0.1,1.271-0.299,1.864c-0.2,0.595-0.479,1.099-0.84,1.513
			s-0.801,0.718-1.322,0.911s-1.08,0.29-1.676,0.29c-0.555,0-1.078-0.087-1.57-0.262c-0.493-0.174-0.919-0.446-1.279-0.817
			c-0.36-0.37-0.634-0.824-0.82-1.36c-0.187-0.537-0.28-1.1-0.28-1.688c0-0.888,0.171-1.688,0.513-2.399
			c0.342-0.711,0.845-1.242,1.508-1.594S69.541,66.128,70.298,66.128z M70.263,67.167c-0.528,0-1.014,0.14-1.456,0.417
			c-0.443,0.277-0.77,0.696-0.982,1.255c-0.212,0.559-0.318,1.167-0.318,1.827c0,0.577,0.088,1.097,0.264,1.557
			c0.176,0.461,0.466,0.833,0.87,1.116s0.89,0.425,1.46,0.425c0.388,0,0.755-0.069,1.103-0.209c0.347-0.139,0.649-0.369,0.908-0.689
			c0.259-0.322,0.45-0.716,0.575-1.182c0.124-0.467,0.186-0.955,0.186-1.467c0-0.48-0.062-0.93-0.186-1.35
			c-0.125-0.42-0.314-0.756-0.571-1.01c-0.256-0.253-0.546-0.432-0.87-0.535S70.594,67.167,70.263,67.167z"/>
		<path fill="#62C7CE" d="M75.71,74.597c0.248-3.417,0.377-6.178,0.387-8.281l0.701,0.009c0.171,0,0.397-0.003,0.677-0.009
			l-0.103,1.635c0.13-0.229,0.233-0.404,0.311-0.527c0.078-0.122,0.182-0.252,0.311-0.388c0.13-0.136,0.283-0.263,0.459-0.38
			s0.384-0.215,0.623-0.295c0.238-0.078,0.481-0.137,0.727-0.176c0.246-0.037,0.491-0.057,0.735-0.057
			c0.446,0,0.876,0.057,1.292,0.172c0.415,0.114,0.755,0.301,1.022,0.56s0.446,0.55,0.537,0.87c0.091,0.322,0.136,0.668,0.136,1.039
			c0,0.07-0.002,0.207-0.008,0.408c-0.005,0.201-0.015,0.467-0.031,0.793l-0.154,3.426c-0.01,0.326-0.018,0.727-0.023,1.201
			c-0.233-0.011-0.454-0.016-0.662-0.016c-0.254,0-0.493,0.005-0.716,0.016c0.052-0.659,0.091-1.295,0.118-1.904l0.102-1.905
			c0.032-0.653,0.047-1.147,0.047-1.479c0-0.479-0.078-0.862-0.233-1.148c-0.156-0.286-0.405-0.507-0.748-0.662
			c-0.342-0.155-0.727-0.232-1.152-0.232c-0.603,0-1.119,0.149-1.549,0.449c-0.395,0.277-0.701,0.673-0.918,1.186
			c-0.151,0.365-0.257,0.904-0.319,1.618c-0.079,0.855-0.134,2.216-0.166,4.079c-0.289-0.011-0.514-0.016-0.674-0.016
			C76.278,74.582,76.035,74.586,75.71,74.597z"/>
		<path fill="#62C7CE" d="M89.333,73.518c-0.057,0.267-0.119,0.621-0.187,1.063c-0.353,0.086-0.633,0.141-0.84,0.162
			c-0.208,0.022-0.404,0.033-0.591,0.033c-0.461,0-0.833-0.061-1.116-0.184c-0.282-0.123-0.499-0.318-0.649-0.589
			c-0.15-0.27-0.226-0.636-0.226-1.099c0-0.061,0.002-0.167,0.008-0.319c0.005-0.153,0.032-0.685,0.079-1.595l0.19-3.662h-1.039
			c0.021-0.229,0.039-0.556,0.055-0.98h1.06c0.026-0.305,0.052-0.826,0.078-1.562c0.486-0.099,0.897-0.19,1.233-0.278
			c-0.036,0.807-0.057,1.42-0.062,1.84h2.161c-0.026,0.344-0.042,0.67-0.046,0.98h-2.153l-0.208,4.603l-0.008,0.352
			c0,0.397,0.043,0.696,0.128,0.896s0.213,0.342,0.384,0.429c0.17,0.087,0.349,0.131,0.536,0.131c0.129,0,0.269-0.011,0.419-0.032
			C88.692,73.685,88.955,73.622,89.333,73.518z"/>
		<path fill="#62C7CE" d="M94.395,66.128c0.544,0,1.063,0.082,1.555,0.245c0.493,0.163,0.919,0.423,1.279,0.776
			c0.36,0.354,0.634,0.801,0.82,1.341s0.28,1.108,0.28,1.708c0,0.648-0.1,1.271-0.299,1.864c-0.2,0.595-0.479,1.099-0.84,1.513
			s-0.801,0.718-1.322,0.911s-1.08,0.29-1.676,0.29c-0.555,0-1.078-0.087-1.57-0.262c-0.493-0.174-0.919-0.446-1.279-0.817
			c-0.36-0.37-0.634-0.824-0.82-1.36c-0.187-0.537-0.28-1.1-0.28-1.688c0-0.888,0.171-1.688,0.513-2.399
			c0.342-0.711,0.845-1.242,1.508-1.594S93.638,66.128,94.395,66.128z M94.36,67.167c-0.528,0-1.014,0.14-1.456,0.417
			c-0.443,0.277-0.77,0.696-0.982,1.255c-0.212,0.559-0.318,1.167-0.318,1.827c0,0.577,0.088,1.097,0.264,1.557
			c0.176,0.461,0.466,0.833,0.87,1.116s0.89,0.425,1.46,0.425c0.388,0,0.755-0.069,1.103-0.209c0.347-0.139,0.649-0.369,0.908-0.689
			c0.259-0.322,0.45-0.716,0.575-1.182c0.124-0.467,0.186-0.955,0.186-1.467c0-0.48-0.062-0.93-0.186-1.35
			c-0.125-0.42-0.314-0.756-0.571-1.01c-0.256-0.253-0.546-0.432-0.87-0.535S94.691,67.167,94.36,67.167z"/>
		<path fill="#62C7CE" d="M99.861,74.597c0.104-1.679,0.205-3.668,0.303-5.967c0.067-1.674,0.116-3.404,0.147-5.191l0.724,0.008
			c0.15,0,0.381-0.002,0.692-0.008l-0.24,4.799l-0.17,4.855l-0.031,1.504c-0.306-0.011-0.534-0.016-0.685-0.016
			C100.538,74.582,100.292,74.586,99.861,74.597z"/>
		<path fill="#62C7CE" d="M107.341,66.128c0.544,0,1.063,0.082,1.555,0.245c0.493,0.163,0.919,0.423,1.279,0.776
			c0.36,0.354,0.634,0.801,0.82,1.341s0.28,1.108,0.28,1.708c0,0.648-0.1,1.271-0.299,1.864c-0.2,0.595-0.479,1.099-0.84,1.513
			s-0.801,0.718-1.322,0.911s-1.08,0.29-1.676,0.29c-0.555,0-1.078-0.087-1.57-0.262c-0.493-0.174-0.919-0.446-1.279-0.817
			c-0.36-0.37-0.634-0.824-0.82-1.36c-0.187-0.537-0.28-1.1-0.28-1.688c0-0.888,0.171-1.688,0.513-2.399
			c0.342-0.711,0.845-1.242,1.508-1.594S106.584,66.128,107.341,66.128z M107.306,67.167c-0.528,0-1.014,0.14-1.456,0.417
			c-0.443,0.277-0.77,0.696-0.982,1.255c-0.212,0.559-0.318,1.167-0.318,1.827c0,0.577,0.088,1.097,0.264,1.557
			c0.176,0.461,0.466,0.833,0.87,1.116s0.89,0.425,1.46,0.425c0.388,0,0.755-0.069,1.103-0.209c0.347-0.139,0.649-0.369,0.908-0.689
			c0.259-0.322,0.45-0.716,0.575-1.182c0.124-0.467,0.186-0.955,0.186-1.467c0-0.48-0.062-0.93-0.186-1.35
			c-0.125-0.42-0.314-0.756-0.571-1.01c-0.256-0.253-0.546-0.432-0.87-0.535S107.637,67.167,107.306,67.167z"/>
		<path fill="#62C7CE" d="M113.29,76.992c0.684,0.219,1.257,0.365,1.718,0.441s0.881,0.115,1.26,0.115
			c0.43,0,0.829-0.063,1.197-0.188c0.306-0.104,0.568-0.252,0.786-0.441c0.166-0.148,0.303-0.339,0.412-0.572
			c0.134-0.311,0.23-0.707,0.288-1.186c0.046-0.387,0.082-1.158,0.108-2.314c-0.125,0.246-0.237,0.445-0.338,0.598
			s-0.237,0.309-0.408,0.47c-0.171,0.161-0.371,0.304-0.599,0.429c-0.228,0.126-0.492,0.225-0.793,0.299s-0.612,0.11-0.933,0.11
			c-0.472,0-0.914-0.068-1.326-0.204c-0.412-0.137-0.78-0.363-1.104-0.679c-0.324-0.315-0.57-0.72-0.739-1.21
			s-0.252-1.002-0.252-1.537c0-0.735,0.125-1.436,0.377-2.101s0.62-1.221,1.104-1.667c0.485-0.447,1.032-0.764,1.641-0.949
			c0.609-0.185,1.277-0.277,2.002-0.277c0.798,0,1.791,0.111,2.978,0.335l-0.086,1.005l-0.234,4.586
			c0,0.094-0.013,0.649-0.039,1.668l-0.047,1.692c-0.026,0.36-0.073,0.676-0.14,0.948c-0.063,0.224-0.146,0.436-0.249,0.638
			c-0.093,0.185-0.21,0.354-0.35,0.507c-0.135,0.158-0.293,0.3-0.474,0.426c-0.182,0.125-0.376,0.226-0.583,0.302
			c-0.29,0.108-0.591,0.188-0.902,0.237c-0.352,0.06-0.705,0.09-1.057,0.09c-0.508,0-1.007-0.027-1.497-0.082
			s-1.038-0.158-1.644-0.311l-0.023-0.449C113.339,77.611,113.321,77.369,113.29,76.992z M119.266,67.346
			c-0.58-0.12-1.122-0.18-1.624-0.18c-0.508,0-0.978,0.063-1.411,0.188c-0.433,0.125-0.829,0.354-1.189,0.686
			c-0.36,0.333-0.641,0.764-0.843,1.292c-0.202,0.528-0.303,1.077-0.303,1.644c0,0.528,0.092,1.011,0.276,1.447
			c0.184,0.436,0.467,0.764,0.851,0.984c0.383,0.221,0.818,0.331,1.306,0.331c0.419,0,0.794-0.077,1.123-0.233
			c0.329-0.154,0.62-0.393,0.874-0.715c0.264-0.332,0.461-0.714,0.591-1.145c0.098-0.305,0.173-0.758,0.226-1.357
			C119.183,69.81,119.225,68.829,119.266,67.346z"/>
		<path fill="#62C7CE" d="M122.442,74.597l0.135-2.061l0.151-3.515l0.063-2.706l0.716,0.009l0.7-0.009
			c-0.058,0.851-0.111,1.74-0.159,2.67c-0.048,0.929-0.086,1.943-0.115,3.045c-0.029,1.101-0.043,1.956-0.043,2.566
			c-0.327-0.011-0.561-0.016-0.701-0.016C123.059,74.582,122.81,74.586,122.442,74.597z M122.8,64.535
			c0.015-0.513,0.023-0.899,0.023-1.161c0.285,0.011,0.537,0.017,0.754,0.017c0.275,0,0.523-0.006,0.747-0.017
			c-0.011,0.169-0.026,0.556-0.047,1.161c-0.28-0.006-0.521-0.009-0.723-0.009S123.1,64.529,122.8,64.535z"/>
		<path fill="#62C7CE" d="M127.729,66.316l-0.155,3.605l-0.124,3.654c-0.047,1.46-0.093,2.367-0.14,2.722
			c-0.047,0.409-0.117,0.728-0.21,0.956c-0.078,0.186-0.176,0.352-0.295,0.499c-0.12,0.147-0.272,0.28-0.459,0.401
			c-0.202,0.13-0.415,0.226-0.638,0.285c-0.301,0.082-0.651,0.123-1.05,0.123c-0.633,0-1.314-0.085-2.046-0.254
			c-0.01-0.305-0.044-0.689-0.101-1.152c0.612,0.234,1.177,0.352,1.695,0.352c0.29,0,0.557-0.055,0.801-0.164
			c0.207-0.087,0.381-0.203,0.521-0.352c0.114-0.125,0.212-0.305,0.295-0.539c0.104-0.277,0.174-0.633,0.21-1.063
			c0.046-0.6,0.095-1.475,0.147-2.624c0.016-0.343,0.044-1.177,0.085-2.501c0.051-1.848,0.077-2.916,0.077-3.205l-0.008-0.744
			c0.327,0.006,0.563,0.009,0.708,0.009C127.189,66.325,127.418,66.322,127.729,66.316z M126.337,64.526
			c0.016-0.311,0.028-0.694,0.039-1.152c0.224,0.011,0.477,0.017,0.758,0.017c0.255,0,0.503-0.006,0.743-0.017
			c-0.016,0.272-0.031,0.657-0.047,1.152c-0.281-0.011-0.532-0.017-0.75-0.017C126.866,64.509,126.618,64.515,126.337,64.526z"/>
		<path fill="#62C7CE" d="M133.498,66.128c0.545,0,1.063,0.082,1.556,0.245c0.493,0.163,0.919,0.423,1.279,0.776
			c0.36,0.354,0.634,0.801,0.82,1.341s0.28,1.108,0.28,1.708c0,0.648-0.1,1.271-0.3,1.864c-0.2,0.595-0.479,1.099-0.84,1.513
			s-0.801,0.718-1.321,0.911c-0.521,0.193-1.08,0.29-1.676,0.29c-0.555,0-1.078-0.087-1.57-0.262
			c-0.493-0.174-0.919-0.446-1.28-0.817c-0.36-0.37-0.634-0.824-0.82-1.36c-0.187-0.537-0.28-1.1-0.28-1.688
			c0-0.888,0.171-1.688,0.513-2.399c0.342-0.711,0.845-1.242,1.508-1.594C132.031,66.304,132.742,66.128,133.498,66.128z
			 M133.464,67.167c-0.528,0-1.014,0.14-1.456,0.417c-0.443,0.277-0.77,0.696-0.982,1.255c-0.212,0.559-0.318,1.167-0.318,1.827
			c0,0.577,0.088,1.097,0.264,1.557c0.176,0.461,0.466,0.833,0.87,1.116s0.89,0.425,1.46,0.425c0.389,0,0.756-0.069,1.103-0.209
			c0.347-0.139,0.649-0.369,0.908-0.689c0.259-0.322,0.45-0.716,0.575-1.182c0.123-0.467,0.186-0.955,0.186-1.467
			c0-0.48-0.063-0.93-0.186-1.35c-0.125-0.42-0.314-0.756-0.571-1.01c-0.257-0.253-0.546-0.432-0.87-0.535
			C134.122,67.218,133.795,67.167,133.464,67.167z"/>
		<path fill="#62C7CE" d="M138.592,74.442l-0.047-0.601c0-0.066-0.021-0.274-0.063-0.625c0.799,0.365,1.535,0.547,2.209,0.547
			c0.352,0,0.65-0.049,0.895-0.146c0.243-0.098,0.426-0.242,0.548-0.436s0.183-0.393,0.183-0.6c0-0.113-0.018-0.228-0.051-0.342
			c-0.033-0.113-0.084-0.224-0.151-0.33c-0.067-0.105-0.167-0.223-0.3-0.35c-0.132-0.128-0.406-0.369-0.824-0.723
			c-0.417-0.354-0.733-0.631-0.948-0.83c-0.216-0.199-0.399-0.403-0.552-0.613c-0.153-0.209-0.266-0.421-0.338-0.633
			c-0.073-0.213-0.109-0.428-0.109-0.646c0-0.349,0.105-0.687,0.314-1.014c0.211-0.327,0.514-0.57,0.91-0.731
			s0.861-0.241,1.396-0.241c0.597,0,1.252,0.073,1.968,0.221c0.02,0.425,0.047,0.814,0.077,1.169
			c-0.581-0.251-1.153-0.376-1.718-0.376c-0.307,0-0.59,0.042-0.852,0.127c-0.262,0.084-0.454,0.211-0.576,0.38
			c-0.121,0.169-0.182,0.354-0.182,0.556c0,0.131,0.02,0.256,0.062,0.376s0.115,0.249,0.222,0.388
			c0.105,0.14,0.234,0.277,0.385,0.414c0.15,0.136,0.449,0.393,0.898,0.768c0.448,0.377,0.756,0.654,0.922,0.834
			c0.165,0.18,0.308,0.365,0.427,0.557c0.119,0.189,0.206,0.379,0.261,0.567s0.082,0.38,0.082,0.576
			c0,0.382-0.107,0.735-0.323,1.063c-0.215,0.326-0.535,0.58-0.96,0.76c-0.426,0.18-0.902,0.27-1.432,0.27
			c-0.223,0-0.484-0.016-0.785-0.045s-0.556-0.065-0.766-0.105C139.163,74.585,138.902,74.523,138.592,74.442z"/>
		<path fill="#62C7CE" d="M149.275,74.597l0.132-2.215l0.163-4.243l0.086-3.556c0.004-0.518,0.008-0.899,0.008-1.145l0.723,0.008
			c0.141,0,0.365-0.002,0.678-0.008c-0.068,0.877-0.149,2.582-0.244,5.113c-0.096,2.531-0.152,4.547-0.168,6.045
			c-0.321-0.011-0.547-0.016-0.676-0.016C149.83,74.582,149.597,74.586,149.275,74.597z M150.877,69.974l1.587-1.779
			c0.555-0.621,1.079-1.247,1.571-1.879c0.357,0.006,0.617,0.009,0.777,0.009c0.201,0,0.479-0.003,0.831-0.009l-3.363,3.666
			c0.628,0.863,1.843,2.4,3.644,4.615c-0.32-0.011-0.58-0.016-0.776-0.016s-0.463,0.005-0.8,0.016l-1.144-1.596
			c-0.108-0.146-0.351-0.458-0.724-0.933l-1.206-1.546L150.877,69.974z"/>
		<path fill="#62C7CE" d="M156.903,74.597c0.104-1.679,0.204-3.668,0.303-5.967c0.067-1.674,0.116-3.404,0.147-5.191l0.724,0.008
			c0.15,0,0.382-0.002,0.692-0.008l-0.24,4.799l-0.17,4.855l-0.031,1.504c-0.307-0.011-0.535-0.016-0.686-0.016
			C157.58,74.582,157.334,74.586,156.903,74.597z"/>
		<path fill="#62C7CE" d="M160.504,74.597l0.135-2.061l0.15-3.515l0.063-2.706l0.717,0.009l0.7-0.009
			c-0.058,0.851-0.11,1.74-0.159,2.67c-0.047,0.929-0.086,1.943-0.115,3.045c-0.028,1.101-0.043,1.956-0.043,2.566
			c-0.327-0.011-0.561-0.016-0.701-0.016C161.121,74.582,160.872,74.586,160.504,74.597z M160.861,64.535
			c0.016-0.513,0.023-0.899,0.023-1.161c0.285,0.011,0.536,0.017,0.754,0.017c0.275,0,0.523-0.006,0.746-0.017
			c-0.01,0.169-0.025,0.556-0.047,1.161c-0.279-0.006-0.521-0.009-0.723-0.009S161.162,64.529,160.861,64.535z"/>
		<path fill="#62C7CE" d="M164.003,74.597c0.248-3.417,0.377-6.178,0.388-8.281l0.7,0.009c0.171,0,0.397-0.003,0.677-0.009
			l-0.103,1.635c0.13-0.229,0.233-0.404,0.312-0.527c0.078-0.122,0.182-0.252,0.311-0.388c0.13-0.136,0.283-0.263,0.459-0.38
			s0.384-0.215,0.623-0.295c0.238-0.078,0.48-0.137,0.727-0.176c0.246-0.037,0.491-0.057,0.734-0.057
			c0.446,0,0.877,0.057,1.292,0.172c0.415,0.114,0.755,0.301,1.022,0.56s0.445,0.55,0.537,0.87c0.09,0.322,0.136,0.668,0.136,1.039
			c0,0.07-0.003,0.207-0.008,0.408s-0.015,0.467-0.03,0.793l-0.154,3.426c-0.011,0.326-0.018,0.727-0.023,1.201
			c-0.233-0.011-0.454-0.016-0.662-0.016c-0.254,0-0.492,0.005-0.716,0.016c0.052-0.659,0.091-1.295,0.118-1.904l0.102-1.905
			c0.031-0.653,0.047-1.147,0.047-1.479c0-0.479-0.078-0.862-0.233-1.148s-0.405-0.507-0.747-0.662
			c-0.343-0.155-0.727-0.232-1.152-0.232c-0.603,0-1.119,0.149-1.549,0.449c-0.395,0.277-0.701,0.673-0.919,1.186
			c-0.151,0.365-0.257,0.904-0.319,1.618c-0.079,0.855-0.135,2.216-0.166,4.079c-0.289-0.011-0.514-0.016-0.674-0.016
			S164.328,74.586,164.003,74.597z"/>
		<path fill="#62C7CE" d="M173.691,74.597l0.135-2.061l0.15-3.515l0.063-2.706l0.717,0.009l0.7-0.009
			c-0.058,0.851-0.11,1.74-0.159,2.67c-0.047,0.929-0.086,1.943-0.115,3.045c-0.028,1.101-0.043,1.956-0.043,2.566
			c-0.327-0.011-0.561-0.016-0.701-0.016C174.308,74.582,174.059,74.586,173.691,74.597z M174.049,64.535
			c0.016-0.513,0.023-0.899,0.023-1.161c0.285,0.011,0.536,0.017,0.754,0.017c0.275,0,0.523-0.006,0.746-0.017
			c-0.01,0.169-0.025,0.556-0.047,1.161c-0.279-0.006-0.521-0.009-0.723-0.009S174.349,64.529,174.049,64.535z"/>
		<path fill="#62C7CE" d="M177.252,74.597l0.133-2.215l0.162-4.243l0.086-3.556c0.005-0.518,0.008-0.899,0.008-1.145l0.724,0.008
			c0.14,0,0.365-0.002,0.677-0.008c-0.067,0.877-0.148,2.582-0.244,5.113s-0.151,4.547-0.167,6.045
			c-0.321-0.011-0.548-0.016-0.677-0.016C177.807,74.582,177.574,74.586,177.252,74.597z M178.854,69.974l1.587-1.779
			c0.555-0.621,1.078-1.247,1.57-1.879c0.357,0.006,0.617,0.009,0.777,0.009c0.202,0,0.479-0.003,0.832-0.009l-3.363,3.666
			c0.627,0.863,1.842,2.4,3.643,4.615c-0.32-0.011-0.579-0.016-0.775-0.016c-0.197,0-0.463,0.005-0.8,0.016l-1.144-1.596
			c-0.109-0.146-0.351-0.458-0.725-0.933l-1.205-1.546L178.854,69.974z"/>
		<path fill="#62C7CE" d="M185.371,67.632c0.046-0.24,0.096-0.594,0.146-1.063c0.623-0.169,1.163-0.285,1.621-0.348
			c0.459-0.063,0.906-0.094,1.342-0.094c0.467,0,0.903,0.045,1.311,0.135c0.406,0.09,0.745,0.236,1.015,0.438
			s0.448,0.434,0.536,0.695c0.088,0.261,0.133,0.541,0.133,0.842c0,0.375-0.027,1.006-0.082,1.893
			c-0.054,0.885-0.095,1.703-0.123,2.456c-0.028,0.752-0.043,1.423-0.043,2.011c-0.279-0.011-0.508-0.016-0.685-0.016
			c-0.166,0-0.402,0.005-0.708,0.016l0.165-2.231l0.118-2.641c-0.182,0.147-0.318,0.251-0.408,0.311
			c-0.092,0.06-0.193,0.116-0.309,0.167c-0.113,0.053-0.239,0.102-0.377,0.148c-0.137,0.046-0.404,0.126-0.801,0.24
			c-0.397,0.115-0.679,0.202-0.845,0.262c-0.358,0.12-0.641,0.24-0.849,0.359c-0.207,0.121-0.381,0.252-0.521,0.393
			c-0.14,0.143-0.238,0.283-0.295,0.426c-0.068,0.174-0.102,0.356-0.102,0.547c0,0.295,0.083,0.551,0.249,0.77
			c0.166,0.217,0.374,0.369,0.626,0.453s0.553,0.127,0.906,0.127c0.217,0,0.445-0.016,0.684-0.048s0.557-0.114,0.957-0.247
			c-0.073,0.211-0.156,0.535-0.249,0.973c-0.379,0.076-0.687,0.124-0.926,0.144c-0.238,0.019-0.464,0.028-0.677,0.028
			c-0.71,0-1.264-0.087-1.664-0.262c-0.398-0.174-0.697-0.439-0.894-0.797c-0.197-0.357-0.296-0.745-0.296-1.164
			c0-0.246,0.035-0.473,0.105-0.68s0.164-0.395,0.283-0.563s0.289-0.338,0.51-0.507s0.451-0.308,0.692-0.417
			c0.241-0.108,0.522-0.217,0.844-0.323c0.321-0.105,0.837-0.249,1.548-0.429c0.228-0.055,0.422-0.11,0.583-0.167
			c0.161-0.058,0.304-0.113,0.428-0.168s0.233-0.119,0.327-0.192c0.093-0.073,0.178-0.163,0.256-0.27s0.135-0.214,0.172-0.323
			c0.035-0.109,0.054-0.218,0.054-0.326c0-0.268-0.083-0.496-0.249-0.688c-0.166-0.19-0.383-0.324-0.649-0.4
			s-0.581-0.114-0.944-0.114c-0.338,0-0.684,0.028-1.039,0.085c-0.354,0.059-0.66,0.126-0.917,0.205S185.754,67.474,185.371,67.632z
			"/>
	</g>
</g>
</svg>
